<svg width="24" height="24" viewBox="0 0 24 24" fill="none" xmlns="http://www.w3.org/2000/svg">
<path d="M6.91308 15.2868C8.36018 14.9413 10.1122 14.7391 12 14.7391C13.8878 14.7391 15.6399 14.9413 17.087 15.2868C18.4572 15.6139 19.9984 16.3834 20.6782 16.9176L12.4243 3.68044C12.2286 3.36651 11.7715 3.36651 11.5757 3.68044L3.3219 16.9176C4.00168 16.3834 5.54283 15.6139 6.91308 15.2868Z" fill="#4A90E2"/>
<path fill-rule="evenodd" clip-rule="evenodd" d="M19.999 17.882C19.9972 17.8731 19.9938 17.8577 19.9874 17.8353C19.9718 17.78 19.9475 17.7129 19.9173 17.6412C19.9084 17.6201 19.8995 17.5996 19.8907 17.5801C19.2552 17.1443 17.9894 16.5303 16.8548 16.2594C15.4938 15.9345 13.8207 15.7391 12 15.7391C10.1794 15.7391 8.50626 15.9345 7.14526 16.2594C6.00061 16.5327 4.72253 17.1552 4.09269 17.5916C4.08692 17.6037 4.08109 17.6165 4.07527 17.6296C4.0496 17.6875 4.02861 17.7443 4.01489 17.7945C4.00178 17.8424 4.0002 17.8666 4.00003 17.8694C4.00003 17.8695 4.00001 17.8696 4.00003 17.8694C4.00003 17.882 4.0052 18.0383 4.34243 18.3157C4.67273 18.5873 5.21111 18.8765 5.96456 19.1386C7.46211 19.6595 9.59595 20 12 20C14.4041 20 16.5379 19.6595 18.0355 19.1386C18.7889 18.8765 19.3273 18.5873 19.6576 18.3157C19.9503 18.0749 19.9929 17.9255 19.999 17.882ZM2.47589 16.3844L10.7272 3.15133C11.3144 2.20955 12.6856 2.20954 13.2729 3.15133L21.5267 16.3885C21.5355 16.4026 21.5439 16.4169 21.552 16.4314L20.6782 16.9176C21.552 16.4314 21.5519 16.4313 21.552 16.4314L21.5526 16.4325L21.5533 16.4337L21.5551 16.4369L21.56 16.4459C21.5638 16.453 21.5689 16.4623 21.5749 16.4736C21.5869 16.4962 21.6031 16.5272 21.622 16.5649C21.6595 16.6396 21.7098 16.7445 21.7609 16.8658C21.8451 17.066 22 17.4655 22 17.8695C22 18.7213 21.5015 19.3887 20.9279 19.8604C20.3474 20.3378 19.5677 20.7232 18.6925 21.0276C16.9327 21.6397 14.5665 22 12 22C9.4335 22 7.0673 21.6397 5.3075 21.0276C4.43232 20.7232 3.65265 20.3378 3.0721 19.8604C2.49848 19.3887 2 18.7213 2 17.8695C2 17.4362 2.14632 17.0461 2.24661 16.8196C2.30188 16.6949 2.35675 16.5902 2.39844 16.5155C2.4195 16.4778 2.43774 16.4467 2.45176 16.4235C2.45878 16.4119 2.46477 16.4021 2.46958 16.3944L2.47332 16.3885L2.47589 16.3844ZM17.9934 14.502L12 4.88998L6.00655 14.502C6.23305 14.4304 6.45895 14.3671 6.68085 14.3141C8.21405 13.948 10.0451 13.7391 12 13.7391C13.955 13.7391 15.786 13.948 17.3192 14.3141C17.541 14.3671 17.767 14.4304 17.9934 14.502Z" fill="#4A90E2"/>
</svg>
